<svg xmlns="http://www.w3.org/2000/svg" width="24" height="24" viewBox="0 0 24 24"><path fill-rule="evenodd" d="M18.7177042,5.98949955 C18.8910146,6.16307661 18.8852637,6.45744358 18.7174656,6.68544713 L18.6469787,6.76747215 L13.4151028,11.9991924 L18.6471287,17.232477 C18.8577507,17.443324 18.9044698,17.7466321 18.769553,17.9473396 L18.7178292,18.0101746 L18.0105821,18.7174216 C17.8370051,18.890732 17.5426381,18.8849811 17.3146346,18.7171831 L17.2326095,18.6466961 L11.999475,13.413406 L6.76735473,18.6465961 C6.55673269,18.8574431 6.25344711,18.9041848 6.05255956,18.769088 L5.98965713,18.7172966 L5.28266008,18.0102996 C5.10910525,17.8367447 5.11482898,17.5423802 5.28281714,17.3143594 L5.35338562,17.232327 L10.5859686,11.9984853 L5.35348562,6.76707215 C5.14263858,6.55645011 5.09589693,6.25316453 5.23099373,6.05227698 L5.28278508,5.98937455 L5.98978213,5.2823775 C6.16333697,5.10882267 6.45770147,5.1145464 6.68572231,5.28253456 L6.76775473,5.35310304 L12.0001821,10.5842718 L17.2327595,5.35295304 C17.4436066,5.142331 17.7469147,5.09561185 17.9476222,5.23052865 L18.0104571,5.2822525 L18.7177042,5.98949955 Z"/></svg>