<svg xmlns="http://www.w3.org/2000/svg" width="24" height="24" viewBox="0 0 24 24"><path fill-rule="evenodd" d="M9.05308974,3.53489233 C9.40258799,3.53489233 9.67033665,3.91139044 9.49658752,4.26138869 C8.07859461,7.1193744 8.55884221,10.6798566 10.9395803,13.0605947 C12.4315728,14.5523372 14.3863131,15.2980835 16.3413033,15.2980835 C17.5065475,15.2980835 18.6717916,15.0330848 19.7390363,14.5035875 C19.8142859,14.4663377 19.8910355,14.4493378 19.9650352,14.4493378 C20.2895336,14.4493378 20.5622822,14.7740861 20.4347828,15.1200844 C19.999285,16.3013285 19.3080385,17.409823 18.3592932,18.3588182 C16.603052,20.1148094 14.3020635,20.992555 12.000325,20.992555 C9.50708747,20.992555 7.01334994,19.9618102 5.21385893,17.9010705 C2.24187379,14.4975875 2.29487353,9.31836341 5.32860836,5.96988015 C6.3413533,4.85213574 7.56284719,4.05188974 8.87484063,3.56764216 C8.93534033,3.54514227 8.99534003,3.53489233 9.05308974,3.53489233 Z M6.70160149,7.43612282 C4.47211264,10.0216099 4.46936266,14.00759 6.7203514,16.5855771 C8.05609472,18.1153194 9.9805851,18.992565 12.000325,18.992565 C13.6955665,18.992565 15.2988085,18.393568 16.5680522,17.2953235 C16.4925525,17.2970735 16.4170529,17.2980735 16.3413033,17.2980735 C13.7665662,17.2980735 11.3460783,16.2953285 9.52558737,14.4748376 C7.61834691,12.5675972 6.64260179,10.0116099 6.70160149,7.43612282 Z M16.6977015,5.12370938 C16.8649507,4.95671022 17.1359493,4.95671022 17.3029485,5.12370938 L18.8764406,6.69745151 C19.0436898,6.86445068 19.0436898,7.13544932 18.8764406,7.30244849 L17.3029485,8.87619062 C17.1359493,9.04318978 16.8649507,9.04318978 16.6977015,8.87619062 L15.1242094,7.30244849 C14.9572102,7.13544932 14.9572102,6.86445068 15.1242094,6.69745151 Z"/></svg>