<svg xmlns="http://www.w3.org/2000/svg" width="24" height="24" viewBox="0 0 24 24"><path fill-rule="evenodd" d="M8.87455781,3.56762108 C9.30180675,3.40987148 9.69880575,3.85362037 9.49655626,4.26136935 C8.0783098,7.1193622 8.5588086,10.6798533 10.9395527,13.0605973 C13.3202967,15.4415914 16.8807878,15.9218402 19.7387807,14.5035937 C20.1442796,14.3023442 20.5910285,14.6953433 20.4345289,15.1200922 C19.99903,16.3015892 19.3080317,17.4098365 18.3590341,18.3588341 C14.7005432,22.017075 8.67430831,21.8648253 5.21356697,17.9010852 C2.2418244,14.4975938 2.29457426,9.3183567 5.32831668,5.96986508 C6.34106415,4.85211787 7.56256109,4.05211987 8.87455781,3.56762108 Z M16.6974883,5.12371719 C16.8647378,4.95671761 17.1354872,4.95671761 17.3027367,5.12371719 L18.8762328,6.69746326 C19.0434824,6.86446284 19.0434824,7.13546216 18.8762328,7.30246174 L17.3027367,8.87620781 C17.1354872,9.04320739 16.8647378,9.04320739 16.6974883,8.87620781 L15.1239922,7.30246174 C14.9569926,7.13546216 14.9569926,6.86446284 15.1239922,6.69746326 Z"/></svg>