<svg xmlns="http://www.w3.org/2000/svg" width="24" height="24" viewBox="0 0 24 24"><path fill-rule="evenodd" d="M20.5,7 L3.5,7 C3.22,7 3,6.78 3,6.5 L3,5.5 C3,5.22 3.22,5 3.5,5 L20.5,5 C20.78,5 21,5.22 21,5.5 L21,6.5 C21,6.78 20.78,7 20.5,7 Z M20.5,13 L3.5,13 C3.22,13 3,12.78 3,12.5 L3,11.5 C3,11.22 3.22,11 3.5,11 L20.5,11 C20.78,11 21,11.22 21,11.5 L21,12.5 C21,12.78 20.78,13 20.5,13 Z M20.5,19 L3.5,19 C3.22,19 3,18.78 3,18.5 L3,17.5 C3,17.22 3.22,17 3.5,17 L20.5,17 C20.78,17 21,17.22 21,17.5 L21,18.5 C21,18.78 20.78,19 20.5,19 Z"/></svg>