<svg xmlns="http://www.w3.org/2000/svg" width="24" height="24" viewBox="0 0 24 24"><path fill-rule="evenodd" d="M12,7.08522727 C9.28999432,7.08522727 7.08522727,9.29024006 7.08522727,12 C7.08522727,14.7100057 9.28999432,16.9147727 12,16.9147727 C14.7100057,16.9147727 16.9147727,14.7100057 16.9147727,12 C16.9147727,9.29024006 14.7100057,7.08522727 12,7.08522727 M12.4914773,4.13636364 L11.5085227,4.13636364 C11.2372273,4.13636364 11.0170455,3.91618182 11.0170455,3.64488636 L11.0170455,1.67897727 C11.0170455,1.40768182 11.2372273,1.1875 11.5085227,1.1875 L12.4914773,1.1875 C12.7627727,1.1875 12.9829545,1.40768182 12.9829545,1.67897727 L12.9829545,3.64488636 C12.9829545,3.91618182 12.7627727,4.13636364 12.4914773,4.13636364 M6.09207457,5.39697827 L5.39687997,6.09192713 C5.2049581,6.28384901 4.89385298,6.28384901 4.70193111,6.09192713 L4.00698224,5.39697827 C3.81481463,5.20505639 3.81481463,4.89395128 4.00698224,4.7020294 L4.70193111,4.0068348 C4.89385298,3.81515866 5.2049581,3.81515866 5.39687997,4.0068348 L6.09207457,4.7020294 C6.28399645,4.89395128 6.28399645,5.20505639 6.09207457,5.39697827 M4.13636364,11.5085227 L4.13636364,12.4914773 C4.13636364,12.7627727 3.91618182,12.9829545 3.64488636,12.9829545 L1.67897727,12.9829545 C1.40768182,12.9829545 1.1875,12.7627727 1.1875,12.4914773 L1.1875,11.5085227 C1.1875,11.2372273 1.40768182,11.0170455 1.67897727,11.0170455 L3.64488636,11.0170455 C3.91618182,11.0170455 4.13636364,11.2372273 4.13636364,11.5085227 M5.39697827,17.9080483 L6.09217287,18.6029972 C6.28384901,18.794919 6.28384901,19.1060241 6.09217287,19.297946 L5.39697827,19.9931406 C5.20505639,20.1850625 4.89395128,20.1850625 4.7020294,19.9931406 L4.0068348,19.297946 C3.81491293,19.1060241 3.81491293,18.794919 4.0068348,18.6029972 L4.7020294,17.9080483 C4.89395128,17.7161264 5.20505639,17.7161264 5.39697827,17.9080483 M11.5085227,19.8636364 L12.4914773,19.8636364 C12.7627727,19.8636364 12.9829545,20.0838182 12.9829545,20.3551136 L12.9829545,22.3210227 C12.9829545,22.5923182 12.7627727,22.8125 12.4914773,22.8125 L11.5085227,22.8125 C11.2372273,22.8125 11.0170455,22.5923182 11.0170455,22.3210227 L11.0170455,20.3551136 C11.0170455,20.0838182 11.2372273,19.8636364 11.5085227,19.8636364 M17.9079254,18.6030217 L18.60312,17.9080729 C18.7947962,17.716151 19.106147,17.716151 19.2980689,17.9080729 L19.9930178,18.6030217 C20.1851854,18.7949436 20.1851854,19.1060487 19.9930178,19.2979706 L19.2980689,19.9931652 C19.106147,20.1848413 18.7947962,20.1848413 18.60312,19.9931652 L17.9079254,19.2979706 C17.7160036,19.1060487 17.7160036,18.7949436 17.9079254,18.6030217 M19.8636364,12.4914773 L19.8636364,11.5085227 C19.8636364,11.2372273 20.0838182,11.0170455 20.3551136,11.0170455 L22.3210227,11.0170455 C22.5923182,11.0170455 22.8125,11.2372273 22.8125,11.5085227 L22.8125,12.4914773 C22.8125,12.7627727 22.5923182,12.9829545 22.3210227,12.9829545 L20.3551136,12.9829545 C20.0838182,12.9829545 19.8636364,12.7627727 19.8636364,12.4914773 M18.6030217,6.0919517 L17.9078271,5.39700284 C17.716151,5.20508097 17.716151,4.89397585 17.9078271,4.70205398 L18.6030217,4.00685938 C18.7949436,3.8149375 19.1060487,3.8149375 19.2979706,4.00685938 L19.9931652,4.70205398 C20.1850871,4.89397585 20.1850871,5.20508097 19.9931652,5.39700284 L19.2979706,6.0919517 C19.1060487,6.28387358 18.7949436,6.28387358 18.6030217,6.0919517"/></svg>