<svg xmlns="http://www.w3.org/2000/svg" width="24" height="24" viewBox="0 0 24 24"><path fill-rule="evenodd" d="M12.0001136,9.27272727 C10.49625,9.27272727 9.27284091,10.4963636 9.27284091,12 C9.27284091,13.5038636 10.49625,14.7272727 12.0001136,14.7272727 C13.5039773,14.7272727 14.7273864,13.5038636 14.7273864,12 C14.7273864,10.4963636 13.5039773,9.27272727 12.0001136,9.27272727 M12.0001136,16.5454545 C9.49375,16.5454545 7.45465909,14.5063636 7.45465909,12 C7.45465909,9.49386364 9.49375,7.45454545 12.0001136,7.45454545 C14.5064773,7.45454545 16.5455682,9.49386364 16.5455682,12 C16.5455682,14.5063636 14.5064773,16.5454545 12.0001136,16.5454545 M12.4545455,4.72727273 L11.5454545,4.72727273 C11.2945455,4.72727273 11.0909091,4.52363636 11.0909091,4.27272727 L11.0909091,2.45454545 C11.0909091,2.20363636 11.2945455,2 11.5454545,2 L12.4545455,2 C12.7054545,2 12.9090909,2.20363636 12.9090909,2.45454545 L12.9090909,4.27272727 C12.9090909,4.52363636 12.7054545,4.72727273 12.4545455,4.72727273 M6.53602273,5.89315909 L5.89306818,6.53588636 C5.71579545,6.71338636 5.42784091,6.71338636 5.25034091,6.53588636 L4.60761364,5.89315909 C4.42988636,5.71565909 4.42988636,5.42793182 4.60761364,5.25043182 L5.25034091,4.60747727 C5.42784091,4.43020455 5.71579545,4.43020455 5.89306818,4.60747727 L6.53602273,5.25043182 C6.71352273,5.42793182 6.71352273,5.71565909 6.53602273,5.89315909 M4.72727273,11.5454545 L4.72727273,12.4545455 C4.72727273,12.7054545 4.52363636,12.9090909 4.27272727,12.9090909 L2.45454545,12.9090909 C2.20363636,12.9090909 2,12.7054545 2,12.4545455 L2,11.5454545 C2,11.2945455 2.20363636,11.0909091 2.45454545,11.0909091 L4.27272727,11.0909091 C4.52363636,11.0909091 4.72727273,11.2945455 4.72727273,11.5454545 M5.89315909,17.4640909 L6.53611364,18.1068182 C6.71361364,18.2843182 6.71361364,18.5720455 6.53611364,18.7495455 L5.89315909,19.3925 C5.71565909,19.57 5.42793182,19.57 5.25043182,19.3925 L4.60747727,18.7495455 C4.42997727,18.5720455 4.42997727,18.2843182 4.60747727,18.1068182 L5.25043182,17.4640909 C5.42793182,17.2865909 5.71565909,17.2865909 5.89315909,17.4640909 M11.5454545,19.2727273 L12.4545455,19.2727273 C12.7054545,19.2727273 12.9090909,19.4763636 12.9090909,19.7272727 L12.9090909,21.5454545 C12.9090909,21.7963636 12.7054545,22 12.4545455,22 L11.5454545,22 C11.2945455,22 11.0909091,21.7963636 11.0909091,21.5454545 L11.0909091,19.7272727 C11.0909091,19.4763636 11.2945455,19.2727273 11.5454545,19.2727273 M17.4640909,18.1068409 L18.1068182,17.4641136 C18.2843182,17.2866136 18.5720455,17.2866136 18.7497727,17.4641136 L19.3925,18.1068409 C19.57,18.2843409 19.57,18.5720682 19.3925,18.7495682 L18.7497727,19.3925227 C18.5720455,19.5697955 18.2843182,19.5697955 18.1068182,19.3925227 L17.4640909,18.7495682 C17.2865909,18.5720682 17.2865909,18.2843409 17.4640909,18.1068409 M19.2727273,12.4545455 L19.2727273,11.5454545 C19.2727273,11.2945455 19.4763636,11.0909091 19.7272727,11.0909091 L21.5454545,11.0909091 C21.7963636,11.0909091 22,11.2945455 22,11.5454545 L22,12.4545455 C22,12.7054545 21.7963636,12.9090909 21.5454545,12.9090909 L19.7272727,12.9090909 C19.4763636,12.9090909 19.2727273,12.7054545 19.2727273,12.4545455 M18.1068636,6.53590909 L17.4641364,5.89318182 C17.2866364,5.71568182 17.2866364,5.42795455 17.4641364,5.25045455 L18.1068636,4.6075 C18.2843636,4.43 18.5720909,4.43 18.7498182,4.6075 L19.3925455,5.25045455 C19.5700455,5.42795455 19.5700455,5.71568182 19.3925455,5.89318182 L18.7498182,6.53590909 C18.5720909,6.71340909 18.2843636,6.71340909 18.1068636,6.53590909"/></svg>