<svg xmlns="http://www.w3.org/2000/svg" width="24" height="24" viewBox="0 0 24 24"><path fill-rule="evenodd" d="M2.06536794,11.0378119 C1.40735418,5.81843086 5.81143573,1.41011222 11.0278405,2.06493444 C14.572693,2.5099256 17.425685,5.33051365 17.9195285,8.87044631 C18.2342771,11.1249971 17.5909214,13.2227744 16.3540474,14.8440993 L21.8438916,20.3362341 C22.0520361,20.5444654 22.0520361,20.8820081 21.8438916,21.0902394 L21.0902007,21.8442448 C20.8820562,22.0522095 20.5446543,22.0522095 20.3365098,21.8442448 L14.8479981,16.3534432 C13.2281489,17.5942993 11.1304469,18.240323 8.87523733,17.9278427 C5.33544846,17.4375259 2.5123056,14.5849433 2.06536794,11.0378119 Z M9.99937748,4.13311683 C6.7642098,4.13311683 4.13188826,6.76653664 4.13188826,10.0030541 C4.13188826,13.2395716 6.7642098,15.8729914 9.99937748,15.8729914 C13.2342787,15.8729914 15.8666002,13.2395716 15.8666002,10.0030541 C15.8666002,6.76653664 13.2342787,4.13311683 9.99937748,4.13311683 Z M10.3990629,6.79917111 C10.6932902,6.79917111 10.9320833,7.0380639 10.9320833,7.33241396 L10.9320833,9.06545322 L12.6643998,9.06545322 C12.9586271,9.06545322 13.1974203,9.30434601 13.1974203,9.59869607 L13.1974203,10.3985603 C13.1974203,10.6929104 12.9586271,10.9318032 12.6643998,10.9318032 L10.9320833,10.9318032 L10.9320833,12.6648425 C10.9320833,12.9591925 10.6932902,13.1980853 10.3990629,13.1980853 L9.59953219,13.1980853 C9.30530489,13.1980853 9.06651173,12.9591925 9.06651173,12.6648425 L9.06651173,10.9318032 L7.33419523,10.9318032 C7.03996794,10.9318032 6.80117477,10.6929104 6.80117477,10.3985603 L6.80117477,9.59869607 C6.80117477,9.30434601 7.03996794,9.06545322 7.33419523,9.06545322 L9.06651173,9.06545322 L9.06651173,7.33241396 C9.06651173,7.0380639 9.30530489,6.79917111 9.59953219,6.79917111 Z"/></svg>