<svg xmlns="http://www.w3.org/2000/svg" width="24" height="24" viewBox="0 0 24 24"><path fill-rule="evenodd" fill="#000" d="M2.06536388,11.0378119 C1.40735659,5.81843086 5.81166138,1.41011222 11.0280149,2.06493444 C14.5728326,2.50992559 17.4257966,5.33051365 17.9196352,8.8704463 C18.2341142,11.1249971 17.5910313,13.2227744 16.3541695,14.8440993 L21.8436933,20.3362341 C22.0521022,20.5444654 22.0521022,20.8820081 21.8436933,21.0902394 L21.0902763,21.8442448 C20.8821338,22.0522095 20.5444687,22.0522095 20.3363262,21.8442448 L14.848135,16.3534432 C13.2283017,17.5942993 11.1306203,18.240323 8.87516638,17.9278427 C5.33567879,17.4375259 2.51256365,14.5849433 2.06536388,11.0378119 Z M9.999562,4.13311683 C6.76415959,4.13311683 4.13213041,6.76653664 4.13213041,10.0030541 C4.13213041,13.2395716 6.76415959,15.8729914 9.999562,15.8729914 C13.2344314,15.8729914 15.8667271,13.2395716 15.8667271,10.0030541 C15.8667271,6.76653664 13.2344314,4.13311683 9.999562,4.13311683 Z M12.6645315,9.06545322 C12.9587559,9.06545322 13.1975467,9.30434601 13.1975467,9.59869606 L13.1975467,10.3985603 C13.1975467,10.6929104 12.9587559,10.9318032 12.6645315,10.9318032 L7.33437927,10.9318032 C7.04015487,10.9318032 6.80136405,10.6929104 6.80136405,10.3985603 L6.80136405,9.59869606 C6.80136405,9.30434601 7.04015487,9.06545322 7.33437927,9.06545322 Z"/></svg>