<svg xmlns="http://www.w3.org/2000/svg" width="24" height="24" viewBox="0 0 24 24"><path fill-rule="evenodd" d="M2.06536388,11.0378119 C1.40735659,5.81843086 5.81166138,1.41011222 11.0280149,2.06493444 C14.5728326,2.5099256 17.4257966,5.33051365 17.9196352,8.87044631 C18.2341142,11.1249971 17.5910313,13.2227744 16.3541695,14.8440993 L21.8436933,20.3362341 C22.0521022,20.5444654 22.0521022,20.8820081 21.8436933,21.0902394 L21.0902763,21.8442448 C20.8821338,22.0522095 20.5444687,22.0522095 20.3365927,21.8442448 L14.848135,16.3534432 C13.2283017,17.5942993 11.1306203,18.240323 8.87516638,17.9278427 C5.33567879,17.4375259 2.51256365,14.5849433 2.06536388,11.0378119 Z M9.999562,4.13311683 C6.7644261,4.13311683 4.13213041,6.76653664 4.13213041,10.0030541 C4.13213041,13.2395716 6.7644261,15.8729914 9.999562,15.8729914 C13.2344314,15.8729914 15.8667271,13.2395716 15.8667271,10.0030541 C15.8667271,6.76653664 13.2344314,4.13311683 9.999562,4.13311683 Z M11.2245642,7.45351341 C11.4327067,7.24528207 11.7701053,7.24528207 11.9782478,7.45351341 L12.5435104,8.01901745 C12.7516529,8.22724878 12.7516529,8.56505813 12.5435104,8.77328946 L8.77455976,12.5438496 C8.56641731,12.752081 8.22875217,12.752081 8.02060972,12.5438496 L7.45534708,11.9783456 C7.24720463,11.7698477 7.24720463,11.4323049 7.45534708,11.2240736 Z"/></svg>