<svg height="46" viewBox="0 0 45 46" width="45" xmlns="http://www.w3.org/2000/svg">
  <style>
    path { fill: black; }
    @media (prefers-color-scheme: dark) {
      path { fill: white; }
    }
  </style>
  <path fill-rule="evenodd" d="M16.9664338,31.6838222 C12.2713529,28.6740333 9.76762623,22.767631 11.5898303,16.888763 C13.6184471,10.3439437 20.274923,6.61332449 26.9408935,8.19930288 C32.0233541,9.40872534 34.9835813,13.4403234 34.2150882,18.2930147 C33.6021166,22.1635844 30.1506388,24.7250382 26.3579249,24.1242198 C23.787736,23.7172811 22.1446001,21.6197335 22.5042556,19.3495741 C22.8451119,17.1975275 24.7844793,15.7245349 26.936336,16.0652012 C27.2663684,16.1174215 27.567917,16.2038224 27.800155,16.2828175 C27.9714376,16.3411144 28.1600004,16.2790197 28.2579847,16.1269161 L29.4660779,14.2543906 C29.5824817,14.0738033 29.522286,13.8341595 29.3331535,13.7319976 C28.8673483,13.479821 28.109679,13.1492189 27.1311653,12.9940771 C23.0448783,12.346925 19.2825471,15.1444147 18.635395,19.2303219 C18.058503,22.8716918 20.4676634,27.5939273 25.9563032,28.4632531 C32.2880637,29.466073 38.2246588,25.4939111 39.244569,19.0539122 C40.6269831,10.325714 34.1140656,2.66262042 24.2738596,1.82443691 C14.1397008,0.961187658 4.71421903,7.69153154 2.33544134,17.5803499 C0.154910939,26.6440873 4.24898351,35.5452771 11.5670433,40.0903432 C12.0546861,40.3930312 12.6959515,40.2536504 13.0069947,39.7711347 L17.2896301,33.131939 C17.6048509,32.6433468 17.4561654,31.9977138 16.9664338,31.6838222" transform="translate(4.175 4.175)"/>
</svg>